<svg viewBox="0 0 96 96" xmlns="http://www.w3.org/2000/svg" xmlns:xlink="http://www.w3.org/1999/xlink" id="Icons_Duck" overflow="hidden"><path d="M66 12C61 12 57 16 57 21L57 35C57 38.9 53.9 42 50 42L25.7 42C24 39 20.7 37 17 37 14.2 37 12 39.2 12 42 12 44.1 13.3 45.9 15.2 46.7 15.1 47.1 15 47.5 15 48 15 50.8 17.2 53 20 53L20 53C22.8 62.2 31 69.1 41 69.9L41 76C39.9 76 39 76.8 39 77.9 39 78.6 39.4 79.3 40 79.7L45.9 83.6C46.2 83.8 46.6 83.9 47 83.9 47.3 83.9 47.6 83.8 47.9 83.7 48.6 83.4 49 82.7 49 81.9L49 81.8C49 80.9 49.6 80.2 50.4 79.9L50.7 79.8C51.7 79.5 52.3 78.3 52 77.2 51.7 76.4 50.9 75.9 50 75.9L45 75.9 45 69.8C46.4 69.7 47.7 69.5 49 69.1L49 72C47.9 72 47 72.8 47 73.9 47 73.9 47 73.9 47 74L49.9 74C51.7 74 53.2 75.1 53.8 76.7 54.1 77.6 54.1 78.6 53.7 79.6L53.9 79.7C54.2 79.9 54.6 80 55 80 55.3 80 55.6 79.9 55.9 79.8 56.6 79.5 57 78.8 57 78L57 77.9C57 77 57.6 76.3 58.4 76L58.7 75.9C59.7 75.6 60.3 74.4 60 73.3 59.7 72.5 58.9 72 58 72L53 72 53 67.8C61.3 64 67 55.7 67 46L67 29.9C71.5 29.4 75 25.6 75 21 75 16 71 12 66 12Z"/><path d="M79.7 21.7C78.7 21.6 77.8 21.4 77 21.1 77 22.9 76.6 24.6 75.8 26 76.3 26 76.7 26 77.2 26 80.1 26 81.9 24.7 83 23.5 83.5 23 83.8 22.4 84 22 83.2 22 81.9 21.9 79.7 21.7Z"/></svg>