<svg viewBox="0 0 96 96" xmlns="http://www.w3.org/2000/svg" xmlns:xlink="http://www.w3.org/1999/xlink" id="Icons_Rabbit_M" overflow="hidden"><g id="Icons"><path d="M63.261 63.759C62.8659 63.9604 62.6537 64.4005 62.742 64.835L65.154 76.208C65.2523 76.6701 65.6605 77.0004 66.133 77L66.372 77C67.4588 76.9904 68.3607 77.8377 68.419 78.923 68.4615 80.0267 67.6012 80.956 66.4975 80.9985 66.4713 80.9995 66.4452 81 66.419 81L63.7 81C62.7569 80.996 61.9434 80.3368 61.744 79.415L59.389 68.315C59.2746 67.7747 58.7438 67.4295 58.2035 67.5439 58.2033 67.5439 58.2032 67.544 58.203 67.544 58.0672 67.5733 57.9391 67.6309 57.827 67.713L53.847 70.58C53.087 71.099 52.413 71.517 51.789 71.858 51.3194 72.1081 51.1212 72.6774 51.334 73.165 51.5635 73.6673 52.1568 73.8885 52.6591 73.659 52.6808 73.6491 52.7021 73.6384 52.723 73.627 53.5053 73.1946 54.2652 72.723 55 72.214L57.755 70.227 59.792 79.827C60.1824 81.6745 61.8117 82.9974 63.7 83L66.344 83C68.5749 83.0023 70.3922 81.2087 70.419 78.978 70.4051 76.9828 68.9253 75.3018 66.948 75.035L64.855 65.165C66.446 64.351 69.264 63 71.015 63 74.4003 63.0016 77.7731 62.5885 81.058 61.77 83.3695 61.1987 85.2241 59.4775 85.966 57.215L86.059 56.933C86.7475 54.9976 86.5344 52.8558 85.478 51.094L80.378 42.385C78.6437 39.4679 75.849 37.3342 72.578 36.43 72.6728 32.9804 72.1604 29.5411 71.064 26.269 68.054 17.657 58.235 13.269 57.818 13.083 57.5614 12.9689 57.2686 12.9689 57.012 13.083 56.73 13.208 56.143 13.469 55.004 16.883 54.8295 17.4077 55.1133 17.9745 55.638 18.149 56.1627 18.3235 56.7295 18.0397 56.904 17.515 57.1466 16.751 57.4365 16.0029 57.772 15.275 60.06 16.45 66.909 20.426 69.172 26.894 70.2904 30.1718 70.7518 33.6378 70.53 37.094 70.4808 37.601 70.8206 38.0639 71.319 38.169 74.3922 38.8038 77.0573 40.7005 78.664 43.396L83.77 52.105C84.5328 53.3611 84.6829 54.8959 84.178 56.276L84.078 56.59C83.5492 58.1965 82.2304 59.4174 80.588 59.821 77.4572 60.6038 74.2422 60.9997 71.015 61 68.788 61 65.848 62.4 63.261 63.759Z"/><path d="M18.378 65.791C18.0808 64.4778 17.9209 63.1373 17.901 61.791 17.9322 61.2387 17.5098 60.7657 16.9575 60.7345 16.4052 60.7033 15.9322 61.1257 15.901 61.678 15.8937 62.7195 15.9817 63.7595 16.164 64.785 12.4239 63.7784 10.208 59.9305 11.2145 56.1904 12.0407 53.1208 14.8282 50.9907 18.007 51 18.5121 51.0023 19.0135 51.0861 19.492 51.248 19.9585 51.4008 20.467 51.1923 20.692 50.756 26.1194 40.3219 38.4234 35.5054 49.492 39.482 50.015 40.233 50.415 40.789 50.451 40.838 50.7738 41.2862 51.3988 41.3878 51.847 41.065 52.2952 40.7422 52.3968 40.1172 52.074 39.669 52.055 39.642 50.174 37.034 49.174 35.393 45.793 29.463 47.265 21.805 47.914 19.21 50.486 19.933 57.851 22.457 61.248 28.401 62.8422 31.1133 63.9524 34.0822 64.529 37.175 64.6143 37.6521 65.0294 37.9993 65.514 37.999L67.58 37.999C68.1153 38.0063 68.5654 37.5993 68.612 37.066 68.649 36.515 68.2323 36.0382 67.6813 36.0012 67.6582 35.9997 67.6351 35.999 67.612 35.999L66.337 35.999C65.677 32.9739 64.5444 30.0716 62.981 27.399 58.41 19.399 47.862 17.109 47.416 17.016 46.9158 16.9115 46.4173 17.2008 46.26 17.687 46.119 18.12 42.876 28.399 47.437 36.381 47.444 36.393 47.544 36.574 47.685 36.814 47.692 36.825 47.685 36.832 47.674 36.829 36.5271 34.1017 24.928 39.1311 19.3 49.132 18.8745 49.0451 18.4413 49.0008 18.007 49 13.0309 49.0162 9.01017 53.0632 9.02636 58.0393 9.04068 62.4387 12.2301 66.1845 16.571 66.9L16.571 66.9C16.623 67.136 16.671 67.372 16.728 67.606L16.785 67.821C18.3719 73.9987 22.2164 79.3574 27.56 82.84 27.7232 82.946 27.9134 83.0026 28.108 83.003L48.947 83.003C51.1689 83.0158 52.9846 81.2328 53.012 79.011 53.0397 76.8252 51.2903 75.0308 49.1045 75.0031 49.0737 75.0027 49.0428 75.0027 49.012 75.003L44.171 75.003C49.9716 70.7721 51.2442 62.6399 47.0133 56.8393 44.566 53.484 40.6629 51.4999 36.51 51.5 35.365 51.4781 34.2231 51.6271 33.122 51.942 32.5924 52.1016 32.2924 52.6604 32.452 53.19 32.6116 53.7196 33.1704 54.0196 33.7 53.86 34.6133 53.5998 35.5606 53.4785 36.51 53.5 42.5851 53.5136 47.499 58.4495 47.4854 64.5246 47.4745 69.3821 44.2788 73.6574 39.623 75.043 39.1149 75.1955 38.8143 75.7182 38.938 76.234 39.0559 76.6888 39.4682 77.005 39.938 77.001L48.97 77.001C50.0836 76.9938 50.9938 77.8875 51.007 79.001 51.031 80.0816 50.1745 80.977 49.094 81.001 49.065 81.0016 49.036 81.0016 49.007 81.001L28.41 81.001C23.5493 77.7516 20.0761 72.8052 18.67 67.13 18.628 66.952 18.593 66.789 18.556 66.62Z"/><path d="M76.994 48.2C77.1065 47.1012 76.3068 46.1192 75.208 46.0068 74.1092 45.8943 73.1272 46.694 73.0148 47.7928 72.9023 48.8916 73.702 49.8736 74.8008 49.986 74.9362 49.9999 75.0726 49.9999 75.208 49.986 76.1515 49.8894 76.8975 49.1435 76.994 48.2Z"/></g></svg>